<?xml version="1.0" standalone="no"?>
<!DOCTYPE svg PUBLIC "-//W3C//DTD SVG 20010904//EN"
 "http://www.w3.org/TR/2001/REC-SVG-20010904/DTD/svg10.dtd">
<svg version="1.0" xmlns="http://www.w3.org/2000/svg"
 width="700.000000pt" height="700.000000pt" viewBox="0 0 700.000000 700.000000"
 preserveAspectRatio="xMidYMid meet">
<metadata>
Created by potrace 1.11, written by Peter Selinger 2001-2013
</metadata>
<g transform="translate(0.000000,700.000000) scale(0.100000,-0.100000)"
fill="#000000" stroke="none">
<path d="M1220 5450 c0 -11 50 -72 75 -90 19 -14 19 -15 -15 -20 l-35 -5 55
-44 c35 -28 47 -42 33 -39 -32 8 -29 -2 17 -50 22 -23 33 -39 25 -36 -44 17 7
-42 60 -69 l30 -16 -23 -8 -24 -9 34 -30 c18 -16 45 -37 58 -46 20 -14 22 -17
8 -17 -24 -1 -23 -8 6 -46 l25 -32 -62 25 c-227 92 -475 52 -693 -112 l-67
-50 29 -8 c16 -5 53 -6 82 -3 56 6 65 -3 30 -29 -22 -16 -21 -17 37 -12 33 2
69 7 80 11 18 6 18 5 3 -5 -35 -22 -19 -32 47 -28 54 2 63 1 48 -9 -14 -11
-11 -13 23 -13 21 1 57 7 79 15 44 16 53 14 30 -5 -29 -24 -16 -32 38 -25 28
4 67 13 85 21 36 14 40 10 15 -18 -15 -17 -14 -18 40 -18 64 0 73 -11 25 -31
-18 -7 -67 -47 -109 -89 -111 -110 -164 -227 -185 -409 l-7 -63 26 16 c14 10
36 33 49 51 28 42 38 44 38 8 0 -25 1 -26 19 -8 11 9 30 36 41 59 17 31 20 34
16 14 -9 -38 0 -35 46 14 22 24 36 34 32 23 -7 -20 -7 -20 15 0 13 11 34 40
47 65 23 44 23 44 24 15 l1 -30 24 30 c14 17 33 47 44 67 17 35 37 44 24 12
-8 -22 3 -17 43 18 l37 33 -7 -80 c-35 -404 -178 -789 -396 -1066 -105 -133
-305 -312 -420 -377 -19 -10 -58 -33 -85 -49 l-51 -30 -86 52 c-151 91 -360
166 -506 181 -74 8 -71 19 -41 -152 203 -1176 988 -2164 2089 -2632 287 -122
603 -205 960 -254 128 -17 651 -17 790 0 575 71 1081 256 1540 563 124 82 320
232 359 273 l24 26 -1245 0 c-1350 0 -1325 -1 -1467 54 -75 30 -111 51 -225
134 -137 100 -185 118 -381 147 -234 35 -288 62 -369 190 -19 28 -46 62 -61
74 -35 26 -108 48 -198 58 l-68 8 88 62 c108 76 289 239 403 361 l85 91 170
11 c94 5 197 11 230 13 l59 2 -3 -45 -3 -45 32 30 32 30 -7 -28 c-4 -15 -4
-53 0 -85 l7 -57 24 30 c13 17 41 62 61 102 23 44 45 74 58 77 11 3 198 6 415
6 734 0 1403 -49 1985 -146 346 -58 436 -79 465 -112 14 -16 65 -74 113 -130
49 -56 126 -134 170 -174 45 -39 94 -82 108 -95 l25 -23 64 91 63 91 -84 79
c-46 43 -81 78 -77 79 4 0 50 -16 104 -35 53 -19 100 -33 104 -30 31 19 228
418 289 584 34 92 111 333 111 347 0 2 -268 5 -596 6 l-596 3 -39 100 c-66
171 -116 365 -155 602 -15 97 -44 346 -40 350 1 1 20 -21 41 -50 32 -43 40
-48 43 -32 7 38 19 35 31 -7 14 -46 58 -138 66 -138 3 0 11 15 19 33 14 32 14
32 15 5 1 -30 31 -103 55 -133 15 -20 15 -20 16 5 0 22 3 20 25 -18 13 -24 33
-54 44 -67 l19 -25 7 33 7 32 8 -31 c8 -34 63 -141 66 -128 1 5 5 21 8 37 9
37 19 34 39 -11 9 -21 32 -56 51 -78 l34 -39 7 59 c11 85 -1 237 -25 331 -36
142 -91 237 -200 347 -60 61 -88 96 -75 93 50 -10 135 -16 135 -9 0 4 -7 16
-17 26 -22 24 -11 33 19 14 27 -17 179 -68 186 -62 2 3 -3 15 -12 28 -25 35
-19 42 17 20 33 -21 129 -52 156 -52 13 1 12 3 -3 15 -25 19 -16 28 15 17 13
-5 51 -13 84 -17 l60 -7 -22 24 c-32 34 -29 38 15 17 38 -19 144 -49 151 -43
2 2 -8 17 -23 34 -35 42 -33 52 8 35 34 -14 177 -36 185 -28 3 2 -35 44 -85
94 -227 229 -462 322 -750 298 -114 -10 -243 -44 -349 -93 l-73 -34 37 37 c90
91 221 272 221 306 0 7 -12 10 -32 7 l-33 -5 47 39 c48 40 118 117 118 129 0
4 -13 4 -29 0 -33 -7 -52 10 -22 20 21 6 135 124 128 131 -2 3 -17 0 -33 -6
l-29 -11 31 33 c18 18 44 53 59 76 l26 44 -33 -7 -33 -7 41 39 c23 21 55 56
70 77 25 34 26 39 9 32 -11 -4 -36 -10 -55 -13 l-35 -6 41 45 c43 46 100 136
92 143 -7 7 -167 -49 -235 -83 -222 -110 -395 -299 -469 -510 -45 -130 -57
-208 -58 -378 l-1 -162 -31 58 c-17 32 -51 87 -77 123 -182 254 -401 379 -667
379 -99 0 -226 -19 -288 -44 -26 -10 -25 -11 43 -44 38 -19 78 -34 87 -34 29
0 21 -20 -13 -34 l-32 -13 44 -17 c24 -9 64 -20 89 -25 l45 -8 -35 -10 -35
-10 55 -25 c30 -14 64 -29 75 -33 19 -7 18 -8 -5 -14 -23 -7 -22 -8 20 -25 25
-9 68 -20 95 -24 l50 -8 -30 -16 -30 -16 30 -12 c17 -7 60 -17 98 -23 70 -12
83 -22 45 -36 l-22 -8 25 -15 c13 -9 37 -22 53 -30 28 -15 26 -15 -60 -22
-292 -23 -516 -147 -691 -384 -54 -72 -139 -219 -131 -227 6 -7 158 62 180 82
20 18 21 17 16 -12 -3 -16 -9 -38 -13 -48 -7 -18 -5 -18 32 2 22 11 61 36 87
56 l47 35 -16 -30 c-21 -40 -7 -40 79 3 63 32 80 35 54 9 -22 -22 -3 -21 41 1
23 12 61 39 84 59 22 21 42 36 44 34 2 -2 -1 -16 -7 -31 -6 -15 -8 -30 -6 -33
10 -9 157 92 178 122 13 19 20 -2 8 -24 -6 -12 -9 -24 -6 -27 5 -5 62 14 130
42 13 6 6 -10 -23 -52 -51 -75 -94 -168 -117 -254 -20 -74 -23 -273 -5 -354
18 -79 63 -215 71 -215 8 0 43 89 58 150 l10 35 17 -40 c17 -40 18 -40 27 -15
6 14 13 57 17 95 7 64 9 67 16 36 8 -32 9 -33 22 -15 8 10 21 44 30 74 13 44
17 51 23 35 7 -18 9 -17 20 10 6 17 12 58 13 93 l2 63 21 -27 21 -26 12 49 c7
27 13 73 14 101 2 54 11 67 22 32 9 -28 22 -25 33 8 11 31 6 52 37 -178 32
-240 109 -558 183 -757 3 -10 -189 -13 -940 -13 l-944 0 -79 78 c-62 60 -99
87 -167 119 -103 50 -201 80 -283 88 -33 3 -76 9 -95 12 -34 5 -34 6 30 24 77
22 123 41 207 87 58 31 61 35 47 50 -9 9 -13 17 -8 18 58 12 174 48 174 54 0
4 -10 11 -22 15 -20 6 -18 8 17 16 22 5 60 16 85 26 36 13 41 17 25 23 -16 6
-11 11 32 30 61 26 87 50 55 50 -40 0 -31 17 11 22 23 3 60 13 82 23 l40 17
-32 9 c-36 10 -53 29 -27 29 20 0 144 60 144 70 0 15 -173 41 -273 41 -130 0
-214 -20 -333 -77 -64 -31 -112 -64 -166 -114 -92 -85 -138 -146 -199 -263
l-46 -89 -6 124 c-10 219 -70 371 -197 499 -97 97 -178 140 -368 194 -23 7
-23 7 -7 -25 9 -17 33 -50 53 -72 l37 -41 -38 6 -38 6 21 -29 c11 -16 35 -41
53 -55 26 -22 28 -25 10 -20 -32 9 -29 -6 13 -61 21 -27 29 -44 20 -41 -9 4
-16 3 -16 -1 0 -10 70 -76 95 -90 19 -11 18 -11 -7 -12 -16 0 -28 -4 -28 -9 0
-5 25 -32 55 -59 60 -55 67 -67 33 -56 -21 6 -20 5 6 -40 l27 -47 -58 30
c-118 59 -194 76 -343 76 -103 0 -149 -5 -195 -19 -69 -21 -236 -105 -280
-140 l-30 -24 57 -7 c32 -4 73 -5 93 -3 41 5 44 -3 10 -30 l-25 -20 24 -6 c14
-3 30 -4 38 -2 7 2 33 7 58 10 l45 6 -22 -19 -22 -19 22 -6 c12 -3 45 -6 72
-6 46 -1 49 -2 31 -15 -18 -14 -16 -15 30 -15 27 0 65 4 83 10 42 12 50 6 26
-20 -18 -20 -18 -20 31 -20 27 0 69 5 93 11 51 11 61 6 37 -20 -16 -18 -15
-19 26 -25 73 -11 73 -19 0 -57 -81 -41 -172 -115 -202 -163 l-22 -36 -593 0
c-519 0 -594 2 -605 15 -16 19 -24 11 85 83 87 57 107 73 240 190 162 144 332
365 430 562 88 177 166 414 195 598 8 48 20 88 30 97 14 13 16 9 12 -50 -3
-41 0 -65 6 -65 6 0 13 6 15 13 3 6 6 -6 7 -28 1 -22 5 -49 9 -60 8 -19 8 -19
19 0 9 16 11 7 12 -50 l0 -70 19 24 19 24 12 -73 c12 -68 14 -72 27 -54 29 37
73 140 93 218 34 132 22 272 -34 387 -13 27 -22 49 -21 49 2 0 23 -11 46 -25
55 -31 57 -31 51 0 -3 21 8 13 62 -42 l66 -68 0 34 0 34 29 -39 c24 -35 70
-74 85 -74 3 0 2 8 -1 17 -5 12 2 10 28 -9 51 -38 83 -54 76 -37 -3 8 -9 23
-13 34 -4 11 15 -4 43 -32 29 -29 56 -53 61 -53 5 0 6 15 4 33 l-5 32 24 -21
c31 -28 110 -77 115 -71 7 6 -45 136 -83 210 -43 82 -142 191 -220 243 -113
75 -321 131 -438 118 l-50 -5 53 20 c56 21 91 41 186 104 58 39 59 41 35 50
l-24 9 30 10 c17 5 54 19 84 30 l53 21 -28 16 -29 15 42 7 c23 4 59 17 80 28
34 18 36 20 13 21 -21 1 -19 4 21 25 25 13 51 31 58 39 12 14 10 16 -8 16 -12
0 -19 5 -16 10 3 6 14 10 23 10 9 0 37 10 62 21 l45 21 -34 12 -34 12 54 27
c62 31 95 54 87 62 -3 3 -54 8 -114 11 -183 11 -341 -34 -477 -133 -108 -79
-231 -259 -272 -396 l-12 -41 -7 86 c-23 287 -172 499 -410 585 -57 20 -176
42 -176 33z m720 -3511 c-125 -118 -242 -204 -355 -259 -126 -63 -154 -64
-222 -11 -27 22 -67 66 -90 98 -42 60 -77 123 -71 128 18 15 691 122 783 123
l40 1 -85 -80z"/>
</g>
</svg>
